# Blender 4.0.2
# www.blender.org
o merged
v 0.000000 -0.453689 -0.030778
v 0.000000 -0.401526 -0.030778
v 0.026062 -0.453689 -0.015731
v 0.026062 -0.401526 -0.015731
v 0.026062 -0.453689 0.014363
v 0.026062 -0.401526 0.014363
v 0.000000 -0.453689 0.029410
v 0.000000 -0.401526 0.029410
v -0.026062 -0.453689 0.014363
v -0.026062 -0.401526 0.014363
v -0.026062 -0.453689 -0.015731
v -0.026062 -0.401526 -0.015731
v 0.000000 -0.494472 -0.030000
v 0.000000 -0.360605 -0.030000
v 0.025981 -0.494472 -0.015000
v 0.025981 -0.360605 -0.015000
v 0.025981 -0.494472 0.015000
v 0.025981 -0.360605 0.015000
v 0.000000 -0.494472 0.030000
v 0.000000 -0.360605 0.030000
v -0.025981 -0.494472 0.015000
v -0.025981 -0.360605 0.015000
v -0.025981 -0.494472 -0.015000
v -0.025981 -0.360605 -0.015000
v 0.016870 -0.345462 -0.009740
v 0.000000 -0.345462 -0.019480
v 0.016870 -0.345462 0.009740
v 0.000000 -0.345462 0.019480
v -0.016870 -0.345462 0.009740
v -0.016870 -0.345462 -0.009740
v 0.011002 -0.271353 -0.007036
v 0.000000 -0.271353 -0.013388
v 0.011002 -0.271353 0.005668
v 0.000000 -0.271353 0.012020
v -0.011002 -0.271353 0.005668
v -0.011002 -0.271353 -0.007036
v 0.012798 -0.269572 -0.008073
v 0.000000 -0.269572 -0.015461
v 0.012798 -0.269572 0.006705
v 0.000000 -0.269572 0.014093
v -0.012798 -0.269572 0.006705
v -0.012798 -0.269572 -0.008073
v 0.010144 -0.267522 -0.006541
v 0.000000 -0.267522 -0.012398
v 0.010144 -0.267522 0.005173
v 0.000000 -0.267522 0.011030
v -0.010144 -0.267522 0.005173
v -0.010144 -0.267522 -0.006541
v 0.010144 -0.265543 -0.006541
v -0.000000 -0.265543 -0.012398
v 0.010144 -0.265543 0.005173
v -0.000000 -0.265543 0.011030
v -0.010144 -0.265543 0.005173
v -0.010144 -0.265543 -0.006541
v 0.011521 -0.264554 -0.007336
v -0.000000 -0.264554 -0.013987
v 0.011521 -0.264554 0.005968
v -0.000000 -0.264554 0.012619
v -0.011521 -0.264554 0.005968
v -0.011521 -0.264554 -0.007336
v 0.011521 -0.260314 -0.007336
v 0.000000 -0.260314 -0.013987
v 0.011521 -0.260314 0.005968
v 0.000000 -0.260314 0.012619
v -0.011521 -0.260314 0.005968
v -0.011521 -0.260314 -0.007336
v 0.010151 -0.260117 -0.006545
v 0.000000 -0.260117 -0.012405
v 0.010151 -0.260117 0.005177
v 0.000000 -0.260117 0.011038
v -0.010151 -0.260117 0.005177
v -0.010151 -0.260117 -0.006545
v 0.014681 -0.345455 -0.009160
v 0.000000 -0.345455 -0.017635
v 0.014681 -0.345455 0.007792
v 0.000000 -0.345455 0.016268
v -0.014681 -0.345455 0.007792
v -0.014681 -0.345455 -0.009160
v 0.024043 -0.360605 -0.014565
v 0.000000 -0.360605 -0.028447
v 0.024043 -0.360605 0.013198
v 0.000000 -0.360605 0.027079
v -0.024043 -0.360605 0.013198
v -0.024043 -0.360605 -0.014565
v 0.024043 -0.488069 -0.014565
v 0.000000 -0.488069 -0.028447
v 0.024043 -0.488069 0.013198
v 0.000000 -0.488069 0.027079
v -0.024043 -0.488069 0.013198
v -0.024043 -0.488069 -0.014565
v 0.000000 -0.257869 -0.015684
v -0.012990 -0.257869 -0.008184
v -0.012990 -0.257869 0.006816
v 0.000000 -0.257869 0.014316
v 0.012990 -0.257869 0.006816
v 0.012990 -0.257869 -0.008184
v -0.015204 -0.263022 -0.009462
v 0.000000 -0.263022 -0.018240
v -0.015204 -0.263022 0.008094
v 0.000000 -0.263022 0.016872
v 0.015204 -0.263022 0.008094
v 0.015204 -0.263022 -0.009462
vn 0.5000 -0.0000 -0.8660
vn 1.0000 -0.0000 -0.0000
vn 0.5000 -0.0000 0.8660
vn -0.5000 -0.0000 0.8660
vn -1.0000 -0.0000 -0.0000
vn -0.5000 -0.0000 -0.8660
vn 0.8569 0.5155 -0.0000
vn -0.0000 -1.0000 -0.0000
vn -0.4987 0.0710 -0.8638
vn -0.8569 0.5155 -0.0000
vn 0.4284 0.5155 -0.7421
vn 0.4284 0.5155 0.7421
vn -0.4284 0.5155 -0.7421
vn -0.4284 0.5155 0.7421
vn -0.7042 -0.7100 -0.0000
vn -0.4981 0.0868 0.8628
vn 0.9969 0.0789 -0.0000
vn -0.9969 0.0789 -0.0000
vn 0.4981 0.0868 0.8628
vn 0.4987 0.0710 -0.8638
vn -0.3057 0.7914 -0.5294
vn 0.3521 -0.7100 0.6098
vn 0.3521 -0.7100 -0.6098
vn -0.3521 -0.7100 -0.6098
vn -0.3521 -0.7100 0.6098
vn 0.7042 -0.7100 -0.0000
vn -0.3057 0.7914 0.5294
vn 0.6113 0.7914 -0.0000
vn -0.6113 0.7914 -0.0000
vn 0.3057 0.7914 0.5294
vn 0.3057 0.7914 -0.5294
vn -0.2918 -0.8120 -0.5055
vn -0.2918 -0.8120 0.5055
vn 0.5836 -0.8120 -0.0000
vn -0.5836 -0.8120 -0.0000
vn 0.2918 -0.8120 0.5055
vn 0.2918 -0.8120 -0.5055
vn -0.0711 0.9898 0.1231
vn -0.4993 -0.0530 -0.8648
vn 0.1421 0.9898 -0.0000
vn -0.1421 0.9898 -0.0000
vn 0.0711 0.9898 0.1231
vn 0.0711 0.9898 -0.1231
vn -0.0711 0.9898 -0.1231
vn -0.4993 -0.0530 0.8648
vn 0.4993 -0.0530 0.8648
vn 0.4993 -0.0530 -0.8648
vn -0.9986 -0.0530 -0.0000
vn 0.9986 -0.0530 -0.0000
vn 0.4253 -0.5257 0.7367
vn 0.4253 -0.5257 -0.7367
vn -0.8507 -0.5257 -0.0000
vn 0.8507 -0.5257 -0.0000
vn -0.4253 -0.5257 -0.7367
vn -0.4253 -0.5257 0.7367
vn -0.0000 1.0000 -0.0000
vn -0.9188 -0.3947 -0.0000
vn 0.4594 -0.3947 -0.7957
vn 0.4594 -0.3947 0.7957
vn -0.4594 -0.3947 0.7957
vn -0.4594 -0.3947 -0.7957
vn 0.9188 -0.3947 -0.0000
vt 1.000000 0.000000
vt 1.000000 1.000000
vt 0.833333 1.000000
vt 0.833333 0.000000
vt 0.666667 1.000000
vt 0.666667 0.000000
vt 0.500000 1.000000
vt 0.500000 0.000000
vt 0.333333 1.000000
vt 0.333333 0.000000
vt 0.166667 1.000000
vt 0.166667 0.000000
vt -0.000000 1.000000
vt -0.000000 0.000000
vt 1.000000 0.500000
vt 0.833333 0.500000
vt 0.666667 0.500000
vt 0.500000 0.500000
vt 0.333333 0.500000
vt 0.166667 0.500000
vt -0.000000 0.500000
vt 0.750000 0.490000
vt 0.957846 0.370000
vt 0.957846 0.130000
vt 0.750000 0.010000
vt 0.542154 0.130000
vt 0.542154 0.370000
vt 0.000000 0.000000
s 0
f 1/1/1 2/2/1 4/3/1 3/4/1
f 3/4/2 4/3/2 6/5/2 5/6/2
f 5/6/3 6/5/3 8/7/3 7/8/3
f 7/8/4 8/7/4 10/9/4 9/10/4
f 9/10/5 10/9/5 12/11/5 11/12/5
f 11/12/6 12/11/6 2/13/6 1/14/6
f 13/15/1 14/2/1 16/3/1 15/16/1
f 15/16/2 16/3/2 18/5/2 17/17/2
f 17/17/3 18/5/3 20/7/3 19/18/3
f 19/18/4 20/7/4 22/9/4 21/19/4
f 18/5/7 16/3/7 25/3/7 27/5/7
f 21/19/5 22/9/5 24/11/5 23/20/5
f 23/20/6 24/11/6 14/13/6 13/21/6
f 13/22/8 15/23/8 17/24/8 19/25/8 21/26/8 23/27/8
f 26/13/9 30/11/9 36/11/9 32/13/9
f 24/11/10 22/9/10 29/9/10 30/11/10
f 16/3/11 14/2/11 26/2/11 25/3/11
f 20/7/12 18/5/12 27/5/12 28/7/12
f 14/13/13 24/11/13 30/11/13 26/13/13
f 22/9/14 20/7/14 28/7/14 29/9/14
f 36/11/15 35/9/15 41/9/15 42/11/15
f 29/9/16 28/7/16 34/7/16 35/9/16
f 27/5/17 25/3/17 31/3/17 33/5/17
f 30/11/18 29/9/18 35/9/18 36/11/18
f 28/7/19 27/5/19 33/5/19 34/7/19
f 25/3/20 26/2/20 32/2/20 31/3/20
f 38/13/21 42/11/21 48/11/21 44/13/21
f 34/7/22 33/5/22 39/5/22 40/7/22
f 31/3/23 32/2/23 38/2/23 37/3/23
f 32/13/24 36/11/24 42/11/24 38/13/24
f 35/9/25 34/7/25 40/7/25 41/9/25
f 33/5/26 31/3/26 37/3/26 39/5/26
f 48/11/5 47/9/5 53/9/5 54/11/5
f 41/9/27 40/7/27 46/7/27 47/9/27
f 39/5/28 37/3/28 43/3/28 45/5/28
f 42/11/29 41/9/29 47/9/29 48/11/29
f 40/7/30 39/5/30 45/5/30 46/7/30
f 37/3/31 38/2/31 44/2/31 43/3/31
f 50/13/32 54/11/32 60/11/32 56/13/32
f 46/7/3 45/5/3 51/5/3 52/7/3
f 43/3/1 44/2/1 50/2/1 49/3/1
f 44/13/6 48/11/6 54/11/6 50/13/6
f 47/9/4 46/7/4 52/7/4 53/9/4
f 45/5/2 43/3/2 49/3/2 51/5/2
f 60/11/5 59/9/5 65/9/5 66/11/5
f 53/9/33 52/7/33 58/7/33 59/9/33
f 51/5/34 49/3/34 55/3/34 57/5/34
f 54/11/35 53/9/35 59/9/35 60/11/35
f 52/7/36 51/5/36 57/5/36 58/7/36
f 49/3/37 50/2/37 56/2/37 55/3/37
f 65/9/38 64/7/38 70/7/38 71/9/38
f 58/7/3 57/5/3 63/5/3 64/7/3
f 55/3/1 56/2/1 62/2/1 61/3/1
f 56/13/6 60/11/6 66/11/6 62/13/6
f 59/9/4 58/7/4 64/7/4 65/9/4
f 57/5/2 55/3/2 61/3/2 63/5/2
f 70/7/39 69/5/39 75/5/39 76/7/39
f 63/5/40 61/3/40 67/3/40 69/5/40
f 66/11/41 65/9/41 71/9/41 72/11/41
f 64/7/42 63/5/42 69/5/42 70/7/42
f 61/3/43 62/2/43 68/2/43 67/3/43
f 62/13/44 66/11/44 72/11/44 68/13/44
f 67/3/45 68/2/45 74/2/45 73/3/45
f 68/13/46 72/11/46 78/11/46 74/13/46
f 71/9/47 70/7/47 76/7/47 77/9/47
f 69/5/48 67/3/48 73/3/48 75/5/48
f 72/11/49 71/9/49 77/9/49 78/11/49
f 74/13/50 78/11/50 84/11/50 80/13/50
f 77/9/51 76/7/51 82/7/51 83/9/51
f 75/5/52 73/3/52 79/3/52 81/5/52
f 78/11/53 77/9/53 83/9/53 84/11/53
f 76/7/54 75/5/54 81/5/54 82/7/54
f 73/3/55 74/2/55 80/2/55 79/3/55
f 84/11/2 83/9/2 89/9/2 90/11/2
f 82/7/6 81/5/6 87/5/6 88/7/6
f 79/3/4 80/2/4 86/2/4 85/3/4
f 80/13/3 84/11/3 90/11/3 86/13/3
f 83/9/1 82/7/1 88/7/1 89/9/1
f 81/5/5 79/3/5 85/3/5 87/5/5
f 85/3/56 86/13/56 90/11/56 89/9/56 88/7/56 87/5/56
f 92/28/8 91/28/8 96/28/8 95/28/8 94/28/8 93/28/8
f 97/28/56 99/28/56 100/28/56 101/28/56 102/28/56 98/28/56
f 95/28/57 96/28/57 102/28/57 101/28/57
f 93/28/58 94/28/58 100/28/58 99/28/58
f 91/28/59 92/28/59 97/28/59 98/28/59
f 96/28/60 91/28/60 98/28/60 102/28/60
f 94/28/61 95/28/61 101/28/61 100/28/61
f 92/28/62 93/28/62 99/28/62 97/28/62
